<?xml version="1.0" encoding="UTF-8"?>
<!DOCTYPE svg PUBLIC "-//W3C//DTD SVG 1.1//EN" "http://www.w3.org/Graphics/SVG/1.1/DTD/svg11.dtd">
<!-- Creator: CorelDRAW X7 -->
<svg xmlns="http://www.w3.org/2000/svg" xml:space="preserve" width="2480px" height="3508px" version="1.1" style="shape-rendering:geometricPrecision; text-rendering:geometricPrecision; image-rendering:optimizeQuality; fill-rule:evenodd; clip-rule:evenodd"
viewBox="0 0 2480 3507"
 xmlns:xlink="http://www.w3.org/1999/xlink">
 <defs>
  <style type="text/css">
   <![CDATA[
    .fil0 {fill:#0C547C}
    .fil1 {fill:#F59E1C}
    .fil2 {fill:#FEFEFE}
   ]]>
  </style>
 </defs>
 <g id="Camada_x0020_1">
  <metadata id="CorelCorpID_0Corel-Layer"/>
  <g id="_2404828805504">
   <path class="fil0" d="M978 2043c-27,73 -119,29 -98,-41 23,-76 126,-33 98,41zm318 -60c-23,64 -130,25 -96,-55 27,-64 124,-24 96,55zm325 -109c-23,66 -133,23 -97,-54 34,-69 122,-17 97,54zm-578 -180c-120,85 -390,-16 -387,-301 3,-260 242,-379 388,-294l0 148c-33,-14 -40,-35 -87,-42 -192,-27 -245,286 -90,369 90,49 140,-7 177,-27l-1 147zm423 -611l364 0 1 129 -217 2c-7,28 -4,87 -2,116l186 2 2 131 -187 -1 -3 247 -144 1c12,-55 27,-62 28,-134l0 -342c0,-72 -8,-89 -28,-151zm-394 1l367 -1 1 130 -225 1c-8,162 -17,113 195,118l0 129 -193 1 -2 117 224 0 1 130 -368 0c17,-60 27,-65 28,-139l0 -342c-1,-76 -11,-80 -28,-144zm255 -187c-34,7 -79,1 -62,-52 11,-33 66,-33 84,-11 18,24 18,81 -2,103 -23,26 -66,21 -82,-11 32,-32 59,38 62,-29zm-113 -1c-35,10 -77,0 -60,-51 10,-32 65,-34 83,-11 20,25 19,84 -4,106 -24,23 -72,21 -78,-20 42,-12 64,33 59,-24zm200 -10c-7,-18 -16,-3 -24,-20 -11,-24 9,-19 12,-21 40,-25 6,-29 47,-26l-1 135 -34 -1 0 -67zm-335 -6c-22,-14 -16,6 -24,-14 -10,-24 9,-18 12,-21 40,-25 7,-29 47,-26l-1 135 -34 -1 0 -73zm-597 1248c59,-8 165,2 231,0 339,-11 656,-83 974,-217 114,-49 219,-110 330,-160 6,-18 6,-831 3,-914 -24,-4 -87,9 -119,10 -196,9 -343,-37 -512,-149 -54,-36 -94,-82 -143,-123 -51,44 -87,85 -145,125 -113,77 -250,134 -383,145 -134,12 -181,-11 -243,-10 -8,93 -1,227 -1,325 0,108 -1,217 0,325 3,131 -7,552 8,643z"/>
   <path class="fil0" d="M1202 3096c27,-62 18,-151 41,-160 14,16 13,60 16,84l15 81 -30 -1c3,-22 8,-17 -2,-40 -31,5 -22,9 -19,40l-21 -4zm464 -35c-42,4 -41,-33 -46,-70 -4,-31 -16,-84 19,-91 35,-7 38,47 42,73 5,37 15,65 -15,88zm-951 -22c8,-22 46,-144 59,-152 17,32 -8,121 4,166l-27 -4c3,-17 7,-21 2,-42 -30,2 -10,16 -24,39l-14 -7zm400 57c6,-45 14,-116 2,-162l26 0c-6,40 -10,110 -5,152 38,1 9,-4 32,-15l-1 27 -54 -2zm322 -167l1 24c-24,-7 3,-17 -38,-13l4 66c28,-2 5,-1 26,-10l1 30c-18,-9 6,-7 -26,-8l7 78 -25 -3c9,-37 -3,-120 -9,-160l59 -4zm-418 161c6,-50 17,-115 11,-163l58 7 -5 25c-12,-14 -11,-23 -33,-18l-2 64c27,-1 5,0 23,-7l-1 28c-25,0 8,-10 -25,-7l-2 62c17,2 10,6 29,-8 0,0 2,0 3,-2 0,-1 1,-1 3,-2l-3 26 -56 -5zm465 0c-7,-33 -10,-119 -16,-164l26 0c-7,30 6,129 12,161l-22 3zm-503 -10c-68,6 -59,-28 -51,-93 9,-74 9,-69 68,-65l-6 40c-15,-22 1,-32 -30,-35 -16,21 -24,116 -17,143 23,3 21,-4 25,-29 3,-23 2,-26 -9,-43l32 4c-3,22 -6,54 -12,78zm569 -165c7,31 2,120 20,150 32,-9 5,-3 27,-23l0 29 -54 6c5,-28 -4,-132 -18,-159l25 -3zm-716 66c2,-14 6,-74 6,-75 10,-7 6,-5 22,1l16 114c5,-33 18,-79 10,-111l21 5c-14,22 -14,55 -17,81 -7,51 -2,67 -22,75 -11,-8 -8,9 -14,-48 -2,-21 -4,-38 -5,-60 -12,22 -19,72 -12,100l-21 0c11,-30 11,-49 16,-82zm919 -32c11,-73 -11,-65 22,-76 15,44 13,115 32,160l-25 5c1,-30 -5,-77 -17,-105 -2,19 1,45 -7,60 -18,-7 -15,-27 -29,-44 0,30 10,70 18,97l-17 4c0,-57 -26,-148 -26,-163 35,-1 28,31 49,62zm-1110 61c24,8 19,2 34,-7l-5 24c-17,0 -36,-4 -49,-16l62 -133c-17,-12 -19,0 -32,6l2 -20c16,-8 29,-2 52,8l-64 138zm1173 -146c14,-9 40,-17 58,-14l1 23c-18,-9 -8,-15 -36,-8l12 62c30,-1 3,-1 25,-10l4 27c-20,-7 -4,-8 -24,-1l16 61c32,-7 13,-7 30,-25l4 26 -57 15c3,-37 -22,-124 -33,-156zm-1254 136c18,-47 24,-111 39,-158l20 7c-11,48 -35,104 -35,158l-24 -7zm1522 -52c-12,-22 4,-37 -31,-32 -5,31 3,21 5,43l-19 2c13,-43 -16,-115 -12,-164 22,1 19,17 44,70 15,31 21,43 38,71l-25 10zm-98 -22c-4,-25 -26,-96 -27,-105l14 -4 28 123c6,22 8,26 1,38 -18,0 -9,8 -22,-15l-31 -57c-4,-6 -4,-5 -8,-8 3,38 17,63 24,90l-18 5c-1,-46 -25,-117 -37,-157 30,-9 26,5 44,36 12,19 21,40 32,54zm-1512 46c10,-34 45,-124 39,-156l25 10c-13,38 -39,99 -39,145 24,3 15,3 33,-9l-5 27 -53 -17zm-93 -37c9,-25 17,-44 26,-74l22 -77 51 19 -10 25c-10,-20 -2,-24 -28,-27l-15 61c13,8 3,4 23,1l-8 27c-17,-9 3,-4 -18,-15 -10,15 -18,43 -20,62 25,9 16,2 36,-5l-3 20c-16,5 -41,-5 -56,-17zm-241 -31c176,79 312,147 501,195 397,102 813,109 1211,1 90,-25 176,-53 263,-87 83,-32 159,-75 241,-108l-125 -285c-68,25 -145,69 -217,97 -417,163 -878,191 -1308,74 -78,-21 -155,-46 -231,-76 -71,-28 -147,-71 -213,-95l-122 284z"/>
   <path class="fil0" d="M491 2175c17,149 160,301 282,349 130,51 225,7 377,78 26,12 82,53 96,58 13,0 107,-94 279,-104 126,-7 183,-10 293,-88 193,-138 213,-361 201,-596 -56,31 -133,62 -193,86 -34,14 -68,28 -102,40l-77 27c-6,3 -6,3 -11,5 -17,9 -3,1 -11,7 4,141 32,207 78,331l-76 -1c-29,-44 -37,-124 -56,-159 -19,52 -30,102 -52,159l-79 0c38,-100 73,-183 76,-298l-215 52c8,117 33,148 69,247l-78 -1c-23,-33 -28,-87 -46,-118 -17,32 -21,85 -46,119l-75 -1c19,-67 71,-143 64,-224l-200 26c-6,11 -4,2 -2,22 8,80 39,129 52,177l-78 -2 -31 -93 -35 95 -76 -1c24,-65 52,-116 53,-191l-381 -1z"/>
   <path class="fil1" d="M2019 1872c12,235 -8,458 -201,596 -110,78 -167,81 -293,88 -172,10 -266,104 -279,104 -14,-5 -70,-46 -96,-58 -152,-71 -247,-27 -377,-78 -122,-48 -265,-200 -282,-349l-9 -47c-15,-91 -5,-512 -8,-643 -1,-108 0,-217 0,-325 0,-98 -7,-232 1,-325 62,-1 109,22 243,10 133,-11 270,-68 383,-145 58,-40 94,-81 145,-125 49,41 89,87 143,123 169,112 316,158 512,149 32,-1 95,-14 119,-10 3,83 3,896 -3,914l2 121zm-800 -1365c-29,12 -116,129 -282,203 -379,168 -525,-67 -530,147 -1,86 1,176 1,263 0,173 -1,346 -1,518 0,315 -51,622 174,844 201,198 352,108 529,182 53,23 110,87 160,69 40,-14 43,-48 155,-84 77,-24 134,-17 210,-26 237,-28 437,-266 449,-534 8,-165 1,-352 1,-519 0,-70 6,-731 -6,-769 -37,-114 -216,71 -566,-112 -48,-26 -100,-59 -143,-96 -47,-40 -88,-111 -151,-86z"/>
   <path class="fil0" d="M1762 187c73,-36 38,137 3,154 -39,20 -52,-29 -44,-67 13,-61 14,-74 41,-87zm-873 -41c57,-21 71,143 36,158 -43,17 -52,-29 -57,-64 -8,-63 -14,-81 21,-94zm-121 134c33,54 -42,108 -66,15 -21,-77 -32,-108 45,-120 5,18 12,36 6,50 -16,-14 -12,-42 -42,-26 -7,10 9,158 47,128 16,-27 0,-23 10,-47zm807 25l10 -41c6,-41 14,-83 11,-121l30 5c-1,24 -27,116 -19,155 -14,11 -13,7 -32,2zm-107 -19c-24,-4 -42,10 -60,-15 -15,-20 -29,-197 69,-144 -2,20 0,32 -8,46 -14,-19 -5,-46 -39,-37 -6,15 -27,155 13,134 7,-11 10,-24 8,-39 -3,-23 -10,-19 -11,-26 0,-2 -2,-3 -2,-6l40 5c-4,26 -5,56 -10,82zm-418 0c2,-60 6,-93 -7,-164l31 0c-4,37 -8,113 5,148 44,2 9,-11 36,-20l2 32 -67 4zm177 -11c11,-49 7,-112 1,-162l63 0 0 31c-26,-7 -2,-18 -35,-19l1 61c21,-7 1,-3 21,-10l-1 36c-18,-6 -2,-3 -21,-9l1 61c34,0 8,-12 34,-20l0 32 -64 -1zm-800 -47l54 271c130,-44 176,-81 345,-119 140,-31 272,-49 415,-49 141,0 278,15 416,48 62,14 122,32 182,53 56,18 116,50 168,65l58 -268c-60,-19 -122,-49 -182,-69 -134,-46 -450,-111 -586,-102 -36,3 -17,14 -47,25 -10,-23 5,-5 1,-24 -174,-17 -465,42 -642,101 -61,20 -123,49 -182,68z"/>
   <path class="fil2" d="M482 2128l9 47 381 1c-1,75 -29,126 -53,191l76 1 35 -95 31 93 78 2c-13,-48 -44,-97 -52,-177 -2,-20 -4,-11 2,-22l200 -26c7,81 -45,157 -64,224l75 1c25,-34 29,-87 46,-119 18,31 23,85 46,118l78 1c-36,-99 -61,-130 -69,-247l215 -52c-3,115 -38,198 -76,298l79 0c22,-57 33,-107 52,-159 19,35 27,115 56,159l76 1c-46,-124 -74,-190 -78,-331 8,-6 -6,2 11,-7 5,-2 5,-2 11,-5l77 -27c34,-12 68,-26 102,-40 60,-24 137,-55 193,-86l-2 -121c-111,50 -216,111 -330,160 -318,134 -635,206 -974,217 -66,2 -172,-8 -231,0z"/>
   <path class="fil2" d="M1072 1084c17,64 27,68 28,144l0 342c-1,74 -11,79 -28,139l368 0 -1 -130 -224 0 2 -117 193 -1 0 -129c-212,-5 -203,44 -195,-118l225 -1 -1 -130 -367 1z"/>
   <path class="fil2" d="M1466 1083c20,62 28,79 28,151l0 342c-1,72 -16,79 -28,134l144 -1 3 -247 187 1 -2 -131 -186 -2c-2,-29 -5,-88 2,-116l217 -2 -1 -129 -364 0z"/>
   <path class="fil2" d="M1043 1694l1 -147c-37,20 -87,76 -177,27 -155,-83 -102,-396 90,-369 47,7 54,28 87,42l0 -148c-146,-85 -385,34 -388,294 -3,285 267,386 387,301z"/>
   <path class="fil0" d="M2462 2751c-8,-18 -37,-43 -52,-66 -67,-104 -24,-194 -3,-259 -15,5 -244,133 -255,141 23,15 61,14 90,22 24,7 32,42 42,67 15,36 51,125 70,156l108 -61z"/>
   <path class="fil0" d="M101 2438c74,192 -20,250 -68,318 34,15 75,46 108,55 10,-43 72,-174 93,-218l108 -25 -241 -130z"/>
   <path class="fil0" d="M2035 529l-80 12c5,7 211,114 223,116 -26,-46 -42,-91 -40,-147 2,-72 21,-91 48,-148 -25,-21 -73,-43 -107,-52l-44 219z"/>
   <path class="fil0" d="M306 363c72,135 64,156 14,290 26,-8 167,-92 224,-111l-88 -11 -46 -221c-29,9 -85,30 -104,53z"/>
   <path class="fil1" d="M1169 3351c3,12 0,11 21,27 7,5 13,9 20,15 0,24 -10,45 -13,70l49 -39 46 32c4,-32 -8,-32 -9,-62l44 -41 -58 -2 -24 -65 -21 65 -55 0z"/>
   <path class="fil2" d="M1621 1874c25,-71 -63,-123 -97,-54 -36,77 74,120 97,54z"/>
   <path class="fil2" d="M1296 1983c28,-79 -69,-119 -96,-55 -34,80 73,119 96,55z"/>
   <path class="fil2" d="M978 2043c28,-74 -75,-117 -98,-41 -21,70 71,114 98,41z"/>
   <path class="fil2" d="M1189 851c15,-7 8,-8 24,1l-2 26 -25 -1 3 -26zm25 45c5,57 -17,12 -59,24 6,41 54,43 78,20 23,-22 24,-81 4,-106 -18,-23 -73,-21 -83,11 -17,51 25,61 60,51z"/>
   <path class="fil2" d="M1323 875c-14,8 -6,7 -23,2 -5,-20 -5,-11 2,-26 13,-7 6,-7 23,1l-2 23zm4 22c-3,67 -30,-3 -62,29 16,32 59,37 82,11 20,-22 20,-79 2,-103 -18,-22 -73,-22 -84,11 -17,53 28,59 62,52z"/>
   <path class="fil2" d="M1753 2949c-21,-31 -14,-63 -49,-62 0,15 26,106 26,163l17 -4c-8,-27 -18,-67 -18,-97 14,17 11,37 29,44 8,-15 5,-41 7,-60 12,28 18,75 17,105l25 -5c-19,-45 -17,-116 -32,-160 -33,11 -11,3 -22,76z"/>
   <path class="fil2" d="M1468 286c5,-26 6,-56 10,-82l-40 -5c0,3 2,4 2,6 1,7 8,3 11,26 2,15 -1,28 -8,39 -40,21 -19,-119 -13,-134 34,-9 25,18 39,37 8,-14 6,-26 8,-46 -98,-53 -84,124 -69,144 18,25 36,11 60,15z"/>
   <path class="fil2" d="M1959 2821c1,9 23,80 27,105 -11,-14 -20,-35 -32,-54 -18,-31 -14,-45 -44,-36 12,40 36,111 37,157l18 -5c-7,-27 -21,-52 -24,-90 4,3 4,2 8,8l31 57c13,23 4,15 22,15 7,-12 5,-16 -1,-38l-28 -123 -14 4z"/>
   <path class="fil2" d="M1739 327c-8,-22 4,-51 9,-74 7,-29 5,-52 31,-56 17,20 3,49 -4,75 -8,34 -3,62 -36,55zm23 -140c-27,13 -28,26 -41,87 -8,38 5,87 44,67 35,-17 70,-190 -3,-154z"/>
   <path class="fil2" d="M896 156c21,12 18,35 22,62 3,23 12,52 2,73 -31,6 -26,-27 -31,-59 -4,-30 -17,-61 7,-76zm-7 -10c-35,13 -29,31 -21,94 5,35 14,81 57,64 35,-15 21,-179 -36,-158z"/>
   <path class="fil2" d="M840 2906c0,1 -4,61 -6,75 -5,33 -5,52 -16,82l21 0c-7,-28 0,-78 12,-100 1,22 3,39 5,60 6,57 3,40 14,48 20,-8 15,-24 22,-75 3,-26 3,-59 17,-81l-21 -5c8,32 -5,78 -10,111l-16 -114c-16,-6 -12,-8 -22,-1z"/>
   <path class="fil2" d="M1227 275l64 1 0 -32c-26,8 0,20 -34,20l-1 -61c19,6 3,3 21,9l1 -36c-20,7 0,3 -21,10l-1 -61c33,1 9,12 35,19l0 -31 -63 0c6,50 10,113 -1,162z"/>
   <path class="fil2" d="M1202 3096l21 4c-3,-31 -12,-35 19,-40 10,23 5,18 2,40l30 1 -15 -81c-3,-24 -2,-68 -16,-84 -23,9 -14,98 -41,160z"/>
   <path class="fil2" d="M1635 2912c29,-4 23,25 27,55 3,27 15,64 0,85 -24,-5 -20,-30 -23,-59 -4,-26 -12,-57 -4,-81zm31 149c30,-23 20,-51 15,-88 -4,-26 -7,-80 -42,-73 -35,7 -23,60 -19,91 5,37 4,74 46,70z"/>
   <path class="fil2" d="M1414 886l0 67 34 1 1 -135c-41,-3 -7,1 -47,26 -3,2 -23,-3 -12,21 8,17 17,2 24,20z"/>
   <path class="fil2" d="M1079 880l0 73 34 1 1 -135c-40,-3 -7,1 -47,26 -3,3 -22,-3 -12,21 8,20 2,0 24,14z"/>
   <path class="fil2" d="M2039 2961l19 -2c-2,-22 -10,-12 -5,-43 35,-5 19,10 31,32l25 -10c-17,-28 -23,-40 -38,-71 -25,-53 -22,-69 -44,-70 -4,49 25,121 12,164z"/>
   <path class="fil2" d="M715 3039l14 7c14,-23 -6,-37 24,-39 5,21 1,25 -2,42l27 4c-12,-45 13,-134 -4,-166 -13,8 -51,130 -59,152z"/>
   <path class="fil2" d="M768 280c-10,24 6,20 -10,47 -38,30 -54,-118 -47,-128 30,-16 26,12 42,26 6,-14 -1,-32 -6,-50 -77,12 -66,43 -45,120 24,93 99,39 66,-15z"/>
   <path class="fil2" d="M981 3080c6,-24 9,-56 12,-78l-32 -4c11,17 12,20 9,43 -4,25 -2,32 -25,29 -7,-27 1,-122 17,-143 31,3 15,13 30,35l6 -40c-59,-4 -59,-9 -68,65 -8,65 -17,99 51,93z"/>
   <path class="fil2" d="M1019 3090l56 5 3 -26c-2,1 -3,1 -3,2 -1,2 -3,2 -3,2 -19,14 -12,10 -29,8l2 -62c33,-3 0,7 25,7l1 -28c-18,7 4,6 -23,7l2 -64c22,-5 21,4 33,18l5 -25 -58 -7c6,48 -5,113 -11,163z"/>
   <path class="fil2" d="M1816 2864c11,32 36,119 33,156l57 -15 -4 -26c-17,18 2,18 -30,25l-16 -61c20,-7 4,-6 24,1l-4 -27c-22,9 5,9 -25,10l-12 -62c28,-7 18,-1 36,8l-1 -23c-18,-3 -44,5 -58,14z"/>
   <path class="fil2" d="M381 2935c15,12 40,22 56,17l3 -20c-20,7 -11,14 -36,5 2,-19 10,-47 20,-62 21,11 1,6 18,15l8 -27c-20,3 -10,7 -23,-1l15 -61c26,3 18,7 28,27l10 -25 -51 -19 -22 77c-9,30 -17,49 -26,74z"/>
   <path class="fil2" d="M1050 286l67 -4 -2 -32c-27,9 8,22 -36,20 -13,-35 -9,-111 -5,-148l-31 0c13,71 9,104 7,164z"/>
   <path class="fil2" d="M1378 2933c6,40 18,123 9,160l25 3 -7 -78c32,1 8,-1 26,8l-1 -30c-21,9 2,8 -26,10l-4 -66c41,-4 14,6 38,13l-1 -24 -59 4z"/>
   <path class="fil2" d="M1575 305c19,5 18,9 32,-2 -8,-39 18,-131 19,-155l-30 -5c3,38 -5,80 -11,121l-10 41z"/>
   <path class="fil0" d="M1739 327c33,7 28,-21 36,-55 7,-26 21,-55 4,-75 -26,4 -24,27 -31,56 -5,23 -17,52 -9,74z"/>
   <path class="fil0" d="M920 291c10,-21 1,-50 -2,-73 -4,-27 -1,-50 -22,-62 -24,15 -11,46 -7,76 5,32 0,65 31,59z"/>
   <path class="fil2" d="M655 2864l-2 20c13,-6 15,-18 32,-6l-62 133c13,12 32,16 49,16l5 -24c-15,9 -10,15 -34,7l64 -138c-23,-10 -36,-16 -52,-8z"/>
   <path class="fil0" d="M1639 2993c3,29 -1,54 23,59 15,-21 3,-58 0,-85 -4,-30 2,-59 -27,-55 -8,24 0,55 4,81z"/>
   <path class="fil2" d="M1525 2918c14,27 23,131 18,159l54 -6 0 -29c-22,20 5,14 -27,23 -18,-30 -13,-119 -20,-150l-25 3z"/>
   <path class="fil2" d="M1484 3090l22 -3c-6,-32 -19,-131 -12,-161l-26 0c6,45 9,131 16,164z"/>
   <path class="fil2" d="M474 2972l53 17 5 -27c-18,12 -9,12 -33,9 0,-46 26,-107 39,-145l-25 -10c6,32 -29,122 -39,156z"/>
   <path class="fil2" d="M1115 3096l54 2 1 -27c-23,11 6,16 -32,15 -5,-42 -1,-112 5,-152l-26 0c12,46 4,117 -2,162z"/>
   <path class="fil2" d="M562 3000l24 7c0,-54 24,-110 35,-158l-20 -7c-15,47 -21,111 -39,158z"/>
   <path class="fil0" d="M1302 851c-7,15 -7,6 -2,26 17,5 9,6 23,-2l2 -23c-17,-8 -10,-8 -23,-1z"/>
   <path class="fil0" d="M1189 851l-3 26 25 1 2 -26c-16,-9 -9,-8 -24,-1z"/>
  </g>
 </g>
</svg>
