<?xml version="1.0" encoding="UTF-8"?>
<!DOCTYPE svg PUBLIC "-//W3C//DTD SVG 1.1//EN" "http://www.w3.org/Graphics/SVG/1.1/DTD/svg11.dtd">
<!-- Creator: CorelDRAW X7 -->
<svg xmlns="http://www.w3.org/2000/svg" xml:space="preserve" width="8.26772in" height="11.6929in" version="1.1" style="shape-rendering:geometricPrecision; text-rendering:geometricPrecision; image-rendering:optimizeQuality; fill-rule:evenodd; clip-rule:evenodd"
viewBox="0 0 8268 11693"
 xmlns:xlink="http://www.w3.org/1999/xlink">
 <defs>
  <style type="text/css">
   <![CDATA[
    .fil0 {fill:#0C547C}
    .fil1 {fill:#F59E1C}
    .fil2 {fill:#FEFEFE}
   ]]>
  </style>
 </defs>
 <g id="Camada_x0020_1">
  <metadata id="CorelCorpID_0Corel-Layer"/>
  <g id="_2226639380400">
   <path class="fil0" d="M2867 7382c-131,330 -566,133 -467,-184 109,-349 600,-152 467,184zm1509 -273c-107,291 -617,113 -457,-250 128,-290 588,-107 457,250zm1545 -494c-110,298 -635,101 -460,-247 157,-315 579,-76 460,247zm-2747 -819c-571,384 -1853,-72 -1838,-1368 15,-1185 1152,-1726 1842,-1338l0 671c-157,-62 -187,-160 -412,-190 -910,-121 -1161,1300 -428,1679 428,221 667,-35 841,-123l-5 669zm2009 -2779l1728 1 6 585 -1031 11c-33,125 -21,392 -10,528l886 6 8 594 -890 0 -11 1123 -685 3c58,-252 128,-281 133,-610l0 -1556c-1,-326 -39,-402 -134,-685zm-1870 5l1743 -5 2 590 -1066 6c-38,734 -80,512 926,537l-2 586 -916 3 -8 534 1065 -1 1 591 -1747 -1c80,-274 128,-293 136,-630l0 -1556c-6,-347 -55,-364 -134,-654zm1210 -853c-161,34 -373,8 -293,-234 50,-151 314,-151 396,-51 89,108 87,369 -6,470 -109,116 -313,96 -392,-51 153,-147 279,171 295,-134zm-539 -2c-163,44 -361,-3 -284,-232 50,-147 311,-153 396,-51 95,115 90,384 -20,482 -115,103 -341,94 -370,-93 201,-51 303,154 278,-106zm952 -45c-32,-83 -78,-17 -114,-93 -51,-107 42,-84 58,-94 190,-114 30,-134 223,-118l-5 613 -161 -3 -1 -305zm-1589 -28c-106,-63 -76,26 -117,-64 -48,-107 42,-84 60,-95 191,-114 32,-134 222,-119l-4 615 -162 -3 1 -334zm-2838 5676c281,-38 785,6 1100,-3 1609,-47 3115,-377 4622,-987 545,-221 1044,-499 1570,-727 29,-80 29,-3776 15,-4157 -116,-17 -414,43 -567,50 -930,38 -1631,-172 -2432,-682 -257,-164 -447,-370 -677,-557 -245,202 -416,387 -692,568 -535,352 -1184,608 -1815,661 -640,53 -861,-53 -1155,-47 -38,425 -6,1032 -6,1477 0,490 -7,987 2,1477 11,599 -36,2510 35,2927z"/>
   <path class="fil0" d="M554 7983c82,675 757,1366 1337,1585 617,233 1069,33 1790,355 126,56 391,241 458,262 62,2 507,-427 1325,-472 598,-32 871,-42 1390,-397 918,-628 1013,-1641 957,-2712 -269,143 -632,284 -920,393 -160,61 -323,124 -483,180l-365 125c-27,10 -30,10 -54,23 -78,38 -13,2 -51,31 21,640 153,941 373,1502l-363 -2c-139,-203 -176,-566 -267,-723 -90,236 -141,463 -247,724l-375 -1c181,-456 349,-833 361,-1356l-1019 237c37,532 156,672 328,1122l-372 -3c-109,-153 -133,-397 -217,-538 -81,148 -103,389 -218,540l-358 -2c92,-304 337,-651 302,-1019l-946 120c-30,48 -22,6 -12,99 36,361 184,586 250,803l-371 -7 -149 -426 -165 432 -363 -1c114,-298 248,-527 253,-871l-1809 -3z"/>
   <path class="fil1" d="M7811 6604c56,1071 -39,2084 -957,2712 -519,355 -792,365 -1390,397 -818,45 -1263,474 -1325,472 -67,-21 -332,-206 -458,-262 -721,-322 -1173,-122 -1790,-355 -580,-219 -1255,-910 -1337,-1585l-45 -213c-71,-417 -24,-2328 -35,-2927 -9,-490 -2,-987 -2,-1477 0,-445 -32,-1052 6,-1477 294,-6 515,100 1155,47 631,-53 1280,-309 1815,-661 276,-181 447,-366 692,-568 230,187 420,393 677,557 801,510 1502,720 2432,682 153,-7 451,-67 567,-50 14,381 14,4077 -15,4157l10 551zm-3802 -6205c-137,52 -549,584 -1338,920 -1799,766 -2493,-301 -2515,670 -9,391 1,802 2,1195 0,786 -3,1572 -3,2358 0,1432 -243,2828 826,3837 952,899 1672,489 2510,828 256,103 524,396 762,313 188,-66 203,-221 735,-382 368,-111 637,-76 998,-118 1127,-130 2076,-1209 2134,-2431 36,-750 4,-1597 4,-2358 0,-319 30,-3325 -29,-3495 -177,-520 -1028,320 -2687,-512 -232,-117 -476,-269 -680,-435 -225,-183 -416,-505 -719,-390z"/>
   <path class="fil2" d="M509 7770l45 213 1809 3c-5,344 -139,573 -253,871l363 1 165 -432 149 426 371 7c-66,-217 -214,-442 -250,-803 -10,-93 -18,-51 12,-99l946 -120c35,368 -210,715 -302,1019l358 2c115,-151 137,-392 218,-540 84,141 108,385 217,538l372 3c-172,-450 -291,-590 -328,-1122l1019 -237c-12,523 -180,900 -361,1356l375 1c106,-261 157,-488 247,-724 91,157 128,520 267,723l363 2c-220,-561 -352,-862 -373,-1502 38,-29 -27,7 51,-31 24,-13 27,-13 54,-23l365 -125c160,-56 323,-119 483,-180 288,-109 651,-250 920,-393l-10 -551c-526,228 -1025,506 -1570,727 -1507,610 -3013,940 -4622,987 -315,9 -819,-35 -1100,3z"/>
   <path class="fil2" d="M3313 3022c79,290 128,307 134,654l0 1556c-8,337 -56,356 -136,630l1747 1 -1 -591 -1065 1 8 -534 916 -3 2 -586c-1006,-25 -964,197 -926,-537l1066 -6 -2 -590 -1743 5z"/>
   <path class="fil2" d="M5183 3017c95,283 133,359 134,685l0 1556c-5,329 -75,358 -133,610l685 -3 11 -1123 890 0 -8 -594 -886 -6c-11,-136 -23,-403 10,-528l1031 -11 -6 -585 -1728 -1z"/>
   <path class="fil2" d="M3174 5796l5 -669c-174,88 -413,344 -841,123 -733,-379 -482,-1800 428,-1679 225,30 255,128 412,190l0 -671c-690,-388 -1827,153 -1842,1338 -15,1296 1267,1752 1838,1368z"/>
   <path class="fil1" d="M3789 11023c15,52 -2,49 97,121 35,25 65,45 97,70 -2,107 -49,205 -65,318l235 -178 219 148c17,-146 -37,-149 -42,-283l208 -187 -276 -10 -113 -294 -101 297 -259 -2z"/>
   <path class="fil2" d="M5921 6615c119,-323 -303,-562 -460,-247 -175,348 350,545 460,247z"/>
   <path class="fil2" d="M4376 7109c131,-357 -329,-540 -457,-250 -160,363 350,541 457,250z"/>
   <path class="fil2" d="M2867 7382c133,-336 -358,-533 -467,-184 -99,317 336,514 467,184z"/>
   <path class="fil2" d="M3870 1961c67,-32 34,-34 114,4l-10 119 -119 -2 15 -121zm114 206c25,260 -77,55 -278,106 29,187 255,196 370,93 110,-98 115,-367 20,-482 -85,-102 -346,-96 -396,51 -77,229 121,276 284,232z"/>
   <path class="fil2" d="M4503 2070c-65,37 -25,34 -109,11 -22,-91 -23,-52 8,-118 65,-34 33,-34 112,2l-11 105zm20 99c-16,305 -142,-13 -295,134 79,147 283,167 392,51 93,-101 95,-362 6,-470 -82,-100 -346,-100 -396,51 -80,242 132,268 293,234z"/>
   <path class="fil2" d="M4936 2122l1 305 161 3 5 -613c-193,-16 -33,4 -223,118 -16,10 -109,-13 -58,94 36,76 82,10 114,93z"/>
   <path class="fil2" d="M3347 2094l-1 334 162 3 4 -615c-190,-15 -31,5 -222,119 -18,11 -108,-12 -60,95 41,90 11,1 117,64z"/>
   <path class="fil0" d="M4402 1963c-31,66 -30,27 -8,118 84,23 44,26 109,-11l11 -105c-79,-36 -47,-36 -112,-2z"/>
   <path class="fil0" d="M3870 1961l-15 121 119 2 10 -119c-80,-38 -47,-36 -114,-4z"/>
  </g>
 </g>
</svg>
